<svg xmlns="http://www.w3.org/2000/svg" width="191.229" height="255.879" viewBox="0 0 191.229 255.879">
  <g id="Group_7" data-name="Group 7" transform="translate(-1974.216 -90)">
    <path id="Path_10" data-name="Path 10" d="M732.229,452.5v5.812H711.95a8.146,8.146,0,0,0-8.137,8.137v15.93H698V466.45a13.95,13.95,0,0,1,13.95-13.95Z" transform="translate(1276.216 -362.5)" fill="#ff8200"/>
    <path id="Path_12" data-name="Path 12" d="M732.229,452.5v5.812H711.95a8.146,8.146,0,0,0-8.137,8.137v15.93H698V466.45a13.95,13.95,0,0,1,13.95-13.95Z" transform="translate(2863.445 798.379) rotate(180)" fill="#ff8200"/>
    <path id="Path_11" data-name="Path 11" d="M698,452.5v5.812h20.28a8.146,8.146,0,0,1,8.137,8.137v15.93h5.813V466.45a13.95,13.95,0,0,0-13.95-13.95Z" transform="translate(1433.216 -362.5)" fill="#ff8200"/>
    <path id="Path_13" data-name="Path 13" d="M698,452.5v5.812h20.28a8.146,8.146,0,0,1,8.137,8.137v15.93h5.813V466.45a13.95,13.95,0,0,0-13.95-13.95Z" transform="translate(2706.445 798.379) rotate(180)" fill="#ff8200"/>
  </g>
</svg>
